<?xml version="1.0" encoding="UTF-8"?>
<svg width="3489px" height="1346px" viewBox="0 0 3489 1346" version="1.1" xmlns="http://www.w3.org/2000/svg" xmlns:xlink="http://www.w3.org/1999/xlink">
    <title>画板</title>
    <g id="画板" stroke="none" stroke-width="1" fill="none" fill-rule="evenodd">
        <g id="cat01" transform="translate(0.000000, 0.000000)" fill="#3273DC" fill-rule="nonzero">
            <path d="M1222.98485,928.064325 C1201.25916,903.033215 1176.0511,878.384234 1168.84133,846.033693 C1161.84089,814.623521 1173.28981,782.492288 1181.04702,751.257397 C1228.36207,560.766097 1132.74426,457.391899 1108.04544,339.181128 C1095.46675,278.975875 1100.56152,216.35158 1090.62534,155.651221 C1065.77782,3.86294222 948.149376,-45.2904754 824.696792,45.639609 C702.050002,135.979886 722.38591,196.37288 423.07092,255.802244 C349.141422,206.005022 265.451021,170.753623 178.176083,152.65234 C85.4350393,133.418791 34.7198771,166.940641 42.536907,284.569911 C49.6669355,391.881699 73.9562168,498.030486 114.201876,597.766151 C139.561118,660.608094 128.190289,670.796816 85.6900689,714.714236 C-63.2571643,868.629146 24.993033,1129.04174 35.4401072,1192.65791 C37.3399528,1204.22479 35.6635695,1219.68274 51.8359328,1230.89241 C53.2971608,1231.90505 63.3720746,1235.37495 63.618797,1236.04035 C7.81467359,1085.43169 -23.0580257,780.376456 129.901562,734.786807 C181.311202,719.465096 238.908009,742.144451 282.138427,769.296377 C496.197117,903.722709 384.690217,1117.62356 233.427781,1066.47643 C187.725154,1051.02263 151.82912,1012.15347 134.855117,966.989977 C130.463125,955.301815 117.423389,940.559943 109.221738,949.974438 C96.3373454,964.763661 139.114193,1077.08217 244.628314,1093.56356 C285.487871,1099.94428 328.597005,1091.14452 367.790147,1104.34126 C428.888419,1124.91309 463.131329,1192.51337 522.137029,1218.48152 C576.470787,1242.39366 651.911356,1227.76477 685.613471,1288.0398 C685.613471,1288.0398 682.706799,1297.80652 679.3748,1311.14199 C677.636113,1318.10089 676.778815,1324.95844 674.18283,1331.63407 C673.03229,1334.59308 672.479033,1338.27065 674.54336,1340.68305 C676.601042,1343.0888 690.708247,1348.55408 694.436497,1344.61316 C699.362638,1339.40624 698.787783,1334.43275 705.600479,1308.16471 C706.616443,1304.24788 714.56971,1274.38616 718.106896,1268.45735 C744.116588,1224.8664 781.857641,1188.21857 826.639835,1164.26074 C982.133104,1081.07292 1093.26618,1203.95065 1080.19072,1307.81664 C1089.57365,1314.90014 1104.21584,1308.68889 1109.6753,1298.27753 C1122.14267,1274.5008 1099.51067,1183.97943 1026.14689,1129.38483 C1131.66433,944.434399 1133.79096,931.973671 1157.55772,925.992521 C1184.27768,919.268713 1207.80021,949.367185 1208.16406,976.917024 C1208.52791,1004.46686 1194.65248,1029.90419 1186.93347,1056.35333 C1159.89702,1148.99469 1221.52528,1257.83499 1314.87192,1282.30786 C1325.1354,1284.72026 1334.08553,1283.95185 1340.19544,1276.30013 C1343.17854,1272.56441 1344.72782,1267.87253 1344.8084,1263.09342 C1346.85196,1141.59302 1302.63133,1019.8434 1222.97571,928.057679 L1222.98485,928.064325 Z M216.241114,461.476526 C195.336997,477.126369 177.10446,490.178566 152.257769,449.588991 C115.58917,389.686119 111.335908,355.327739 104.62456,326.443772 C101.38394,312.496895 98.1591038,297.753361 102.379137,284.066498 C114.711104,244.070054 177.401026,259.266327 202.513546,273.677574 C218.684248,282.957493 276.147309,307.726097 278.514848,367.365633 C280.010966,405.060165 244.044321,440.667941 216.242776,461.477356 L216.241114,461.476526 Z M1128.36639,851.812978 C1112.16578,887.530408 1103.40589,994.63784 932.741271,1076.03131 C803.050016,1137.8872 744.983024,1163.78807 656.578314,1159.86709 C551.584221,1155.21592 415.097716,1083.26269 403.683689,1075.94824 C397.578763,1072.03807 386.520283,1067.60454 392.972448,1059.54993 C395.800202,1056.02022 399.996144,1054.04311 403.072283,1050.87144 C409.894947,1043.83695 414.44062,1035.05546 420.675968,1027.4702 C444.32643,998.698376 437.419033,953.30976 426.564078,913.828359 C416.65863,877.796088 407.340497,840.238623 381.590819,811.716848 C373.664965,802.939511 367.576654,792.284758 358.928078,784.005851 C336.879235,762.899039 371.186942,769.882862 434.303851,655.386218 C461.098569,606.77775 483.101723,576.28718 492.710605,465.252126 C495.59651,431.900573 500.336571,393.077929 488.237204,361.080442 C482.547636,346.033697 474.792909,325.934543 464.488718,313.51369 C439.892903,283.866296 506.248771,270.387942 521.837972,266.070715 C588.399026,247.637145 658.540463,238.660436 675.071695,238.679543 C684.245283,238.689512 689.650747,239.168003 697.397166,232.789772 C716.442142,217.108362 729.127994,188.501853 745.39672,169.452723 C776.953098,132.50085 811.226745,99.0138906 852.824808,73.5715765 C879.312162,57.3709689 918.636558,33.0841797 951.472237,38.231291 C1038.83025,51.9248001 1095.90038,228.323847 1051.59834,346.941669 C1048.19573,356.053784 1047.57269,361.645328 1053.85955,370.01063 C1124.94883,464.604168 1142.83745,510.152282 1154.13518,623.91042 C1162.6525,709.69007 1144.06192,817.20123 1128.36058,851.817132 L1128.36639,851.812978 Z" id="形状"></path>
            <path d="M345.035197,885.947065 C350.213045,891.060117 365.069555,909.546853 364.712348,916.883729 C364.279545,925.79315 355.127556,933.617656 346.284593,930.705999 C339.462759,928.459746 311.59808,905.738855 311.743455,881.250201 C311.811574,869.827037 331.812703,872.891545 345.035197,885.947065 L345.035197,885.947065 Z" id="路径"></path>
            <path d="M269.057986,959.963788 C262.956383,955.613333 261.868977,947.066935 259.412552,940.82328 C251.485037,920.677606 237.85217,924.683314 241.184168,912.848946 C245.171601,898.687744 254.825343,902.80643 264.087817,910.459809 C271.369866,916.476679 278.756586,922.607357 284.040765,930.436848 C287.052108,934.89945 297.384543,960.013631 286.023682,960.787858 C280.522686,961.163341 273.922654,963.432024 269.057986,959.963788 L269.057986,959.963788 Z" id="路径"></path>
            <path d="M202.899828,998.841259 C188.896462,998.336184 199.705728,982.012631 177.572153,952.675093 C175.643232,950.118152 175.123205,940.23098 177.145996,937.828551 C183.691201,930.053057 197.707028,943.552179 204.042892,951.290291 C222.515506,973.851685 218.732429,999.411961 202.899828,998.841259 L202.899828,998.841259 Z" id="路径"></path>
            <path d="M818.426554,960.04686 C814.771407,959.226113 811.907101,956.879343 808.178021,956.345193 C792.592142,954.113061 779.966102,975.32122 774.737581,987.135651 C758.990544,1022.72349 667.716543,1017.81978 646.84067,986.126333 C637.766768,972.350583 643.835974,954.078171 652.777792,951.360902 C660.018305,949.160337 666.474624,955.999616 671.729728,961.444123 C690.282921,980.665211 722.34022,990.887161 746.067938,974.684892 C758.676533,966.07536 762.217872,954.081494 766.712872,940.415399 C773.925972,918.484518 763.400811,887.152433 763.659994,874.833757 C764.093627,854.240328 699.935832,868.25034 692.230118,835.363987 C689.923221,825.520012 694.995568,815.451744 701.127908,807.412913 C740.321051,756.033178 818.283671,762.310062 828.700839,787.30379 C835.43877,803.469508 817.776104,825.856451 808.054244,845.743773 C799.397361,863.452129 799.138178,881.016771 802.64795,900.099129 C809.493043,937.311016 889.274929,940.401276 897.38271,908.436187 C900.0194,898.04477 901.9018,887.395832 901.416663,876.412947 C900.744614,861.156863 921.743433,861.435983 931.692078,865.127681 C946.545265,870.638646 939.224172,892.15583 938.54797,904.170464 C937.311035,926.150357 928.046069,926.905477 909.917371,943.524766 C902.868753,949.986068 896.940769,957.054624 887.001262,958.849799 C871.740193,961.606112 827.807821,962.155215 818.42157,960.04686 L818.426554,960.04686 Z" id="路径"></path>
            <path d="M934.394394,311.740113 C916.552293,307.661301 905.284473,301.022226 844.04581,269.881205 C821.751907,258.545266 777.029524,253.148109 813.806947,197.301619 C833.962589,166.694749 860.56292,135.313652 892.496443,116.701478 C913.521014,104.447599 942.684932,95.0912534 966.298011,105.392122 C981.765928,112.141683 988.297841,130.285333 991.52517,145.586276 C995.925468,166.447196 1001.42397,187.117051 1002.7174,208.525412 C1006.2172,266.428753 991.622363,324.825539 934.396886,311.741774 L934.394394,311.740113 Z M930.885453,133.692927 C900.232063,130.195616 873.448974,173.24743 857.292395,193.461223 C838.825596,216.565905 851.842072,221.796087 873.082629,238.530014 C900.073396,259.793 943.190837,277.150794 953.151112,278.641097 C964.083324,280.276775 963.937949,273.810488 963.958578,264.184161 C964.012713,238.579026 960.808645,212.981369 954.637262,188.137169 C951.387504,175.049252 945.384756,135.346881 930.885453,133.692927 Z" id="形状"></path>
            <path d="M934.975895,633.916384 C906.732409,646.26995 910.316945,665.188658 900.030199,680.688972 C886.291,701.391225 837.233115,658.158315 905.733059,620.37988 C923.661554,610.491877 935.607238,591.576493 966.096978,602.253675 C1008.89875,617.242269 1007.98496,645.252324 988.550379,649.077767 C963.541698,653.999755 962.121175,622.043803 934.975895,633.916384 L934.975895,633.916384 Z" id="路径"></path>
            <path d="M492.021942,787.515623 C489.705078,790.924878 488.893469,795.674076 486.093128,798.832456 C483.067663,802.245034 475.238173,805.251392 470.861965,803.255183 C458.721063,797.715974 455.899123,789.309137 461.763142,777.591899 C485.574762,730.011856 513.113801,722.421611 565.25364,733.680294 C574.850892,735.752928 584.169855,740.607628 588.291864,751.405264 C592.326648,761.976115 577.81073,767.517816 569.450413,766.597383 C556.208813,765.138648 526.2499,737.161821 492.022773,787.515623 L492.021942,787.515623 Z" id="路径"></path>
            <path d="M495.868154,968.603226 C491.220302,975.491517 479.45156,979.823696 478.101648,979.93252 C469.808618,980.603738 462.92282,968.533446 464.261102,961.432493 C469.10251,935.742626 516.673415,918.356587 533.362484,933.054431 C545.761739,943.973352 545.793306,962.245763 519.521107,961.98658 C509.224392,961.885233 502.483969,958.796634 495.868154,968.603226 L495.868154,968.603226 Z" id="路径"></path>
            <path d="M561.868475,1011.63427 C561.757159,1020.14246 554.215927,1023.47363 546.95963,1024.91409 C538.355082,1026.62204 531.759203,1026.63699 527.014989,1035.42097 C523.595765,1041.75185 516.179971,1046.70458 509.471115,1048.91262 C493.648483,1054.12037 481.439462,1041.73524 487.982174,1029.48967 C489.871221,1025.95497 492.737188,1023.05744 495.56162,1020.21473 C504.355571,1011.36678 516.648494,991.713723 530.543867,993.891027 C538.96815,995.211034 547.289424,995.975292 554.934496,1000.07404 C561.321034,1003.49659 561.960685,1004.49428 561.868475,1011.63427 L561.868475,1011.63427 Z" id="路径"></path>
            <path d="M1025.19156,739.259377 C1016.13345,742.593037 1007.38768,751.392803 997.043611,749.834382 C989.497394,748.697133 983.044398,738.18277 984.330345,730.742054 C985.622108,723.270602 999.253313,719.687727 1005.12979,717.273669 C1014.05749,713.606892 1049.51989,700.914395 1061.20971,701.944482 C1071.2921,702.833347 1069.83752,714.357028 1067.68846,724.455202 C1067.46417,725.509379 1066.67,726.82274 1065.76369,727.292094 C1059.74849,730.408938 1055.01756,733.95443 1048.19074,735.321787 C1040.55232,736.852795 1032.58825,736.537124 1025.19156,739.259377 L1025.19156,739.259377 Z" id="路径"></path>
            <path d="M520.889295,859.031893 C529.370066,859.985554 530.962547,871.222638 529.440677,877.945616 C527.310723,887.351805 517.92198,888.970868 510.106612,892.539621 C504.11051,895.277658 470.305386,910.664165 462.890422,911.342028 C444.8963,912.986845 453.752555,897.805524 460.671582,890.694602 C476.940308,873.973967 513.555741,858.206993 520.889295,859.031893 Z" id="路径"></path>
            <path d="M1043.21808,872.157193 C1033.5145,874.47655 1028.20291,871.043204 1024.65492,861.510747 C1022.89962,856.796438 1025.71491,851.333655 1029.85437,848.948672 C1042.11739,841.88427 1121.10843,850.086752 1102.05515,870.42349 C1075.90922,898.324721 1076.62613,864.17402 1043.21808,872.157193 Z" id="路径"></path>
            <path d="M1064.40132,787.208258 C1053.6527,785.105718 1042.65486,792.064619 1030.92682,795.668261 C1025.26384,797.407779 1020.14497,795.722258 1015.58351,793.863948 C1010.94563,791.97324 1013.42698,784.674577 1015.42817,781.509552 C1018.52092,776.618301 1024.38577,774.789066 1029.71315,773.44663 C1081.35123,760.438461 1081.41271,757.604061 1089.04947,761.422028 C1095.19593,766.560001 1096.68956,773.414232 1094.63271,780.609056 C1093.83439,783.401921 1089.90843,784.540001 1086.54403,785.197096 C1079.98138,786.47889 1073.34148,786.555316 1064.40132,787.208258 Z" id="路径"></path>
        </g>
        <text id="Z-Blog" font-family="JCfg, PilGi" font-size="600" font-weight="normal" fill="#000000" fill-opacity="0.928946542">
            <tspan x="1481" y="918">Z-Blog</tspan>
        </text>
    </g>
</svg>